# xmcd
#
# Track frame offsets: 
#        225
#        11782
#        27410
#        38478
#        52238
#        68408
#        76911
#        86093
#        97260
#        107719
#        119692
#        130203
#        144520
#        158541
#
# Disc length: 2265 seconds
#
# Revision: 5
# Processed by: cddbd v1.5.2PL0 Copyright (c) Steve Scherf et al.
# Submitted via: ExactAudioCopy v0.99pb5
#
DISCID=bb08d60e
DTITLE=Ronny - Country and Volksmusik 
DYEAR=2002
DGENRE=Schlager
TTITLE0=Anna Maria
TTITLE1=Ay, ay, ay
TTITLE2=Cheerio
TTITLE3=Darling Good Night
TTITLE4=Es h‰ngt ein Pferdehalfter an der Wand
TTITLE5=Fern in Idaho
TTITLE6=Geisterreiter ziehen durch die Nacht
TTITLE7=Das Haus am alten Ohio
TTITLE8=Jesse James
TTITLE9=Kein Gold am Blue River
TTITLE10=Kenn' ein Land
TTITLE11=Laﬂ' deinen Colt zuhaus', Bill
TTITLE12=Nur noch einmal nach Haus'
TTITLE13=Old Charly
EXTD=YEAR: 2002
EXTT0=
EXTT1=
EXTT2=
EXTT3=
EXTT4=
EXTT5=
EXTT6=
EXTT7=
EXTT8=
EXTT9=
EXTT10=
EXTT11=
EXTT12=
EXTT13=
PLAYORDER=
